
<?xml version="1.0" encoding="utf-8"?>
<!-- Generator: Adobe Illustrator 23.0.1, SVG Export Plug-In . SVG Version: 6.00 Build 0)  -->
<svg version="1.1" id="Calque_1" xmlns="http://www.w3.org/2000/svg" xmlns:xlink="http://www.w3.org/1999/xlink" x="0px" y="0px"
	 viewBox="0 0 432 432" style="enable-background:new 0 0 432 432;" xml:space="preserve">
<style type="text/css">
	.st0{fill:#282828;}
	.st1{fill:#C0864D;}
	.st2{fill:#BF9C63;}
	.st3{fill:#D67388;}
	.st4{fill:#74AAAF;}
	.st5{fill:#F2ACA5;}
	.st6{fill:#A47B9B;}
	.st7{fill:#D5A8B2;}
	.st8{fill:#B6C8A3;}
	.st9{fill:#3C3C3B;}
	.st10{fill:#E1AD73;}
	.st11{fill:#354F2C;}
	.st12{fill:#9E1D28;}
	.st13{fill:#3E6689;}
	.st14{fill:#036838;}
	.st15{fill:#C7D2D8;}
	.st16{fill:#7D95B2;}
	.st17{fill:#E6E5E5;}
	.st18{fill:#80171B;}
	.st19{fill:#6595AA;}
	.st20{fill:#162640;}
	.st21{fill:#634E42;}
	.st22{fill:#EBCCD2;}
	.st23{fill:#362317;}
	.st24{fill:#C74E26;}
	.st25{fill:#827270;}
	.st26{fill:#EC6C78;}
	.st27{fill:#3C628E;}
	.st28{fill:#544841;}
	.st29{fill:#88525A;}
	.st30{fill:#EA94AA;}
	.st31{fill:#EF8491;}
	.st32{fill:#466C8C;}
	.st33{fill:#BF8E72;}
	.st34{fill:#8A2F2F;}
	.st35{fill:#3F4F45;}
	.st36{fill:#C58247;}
	.st37{fill:#A1272D;}
	.st38{fill:#DFEBF2;}
	.st39{fill:#ABB9CE;}
	.st40{fill:#333333;}
	.st41{fill:#9B3947;}
	.st42{fill:#4D4D4D;}
	.st43{fill:#C2B19F;}
	.st44{fill:#B0C268;}
	.st45{fill:#D98880;}
	.st46{fill:#D95548;}
	.st47{fill:#BA2314;}
	.st48{fill:#CC8A56;}
	.st49{fill:#E6E6E6;}
	.st50{fill:#728290;}
	.st51{fill:#CDDDEC;}
	.st52{fill:#DCE0E3;}
</style>
<g>
	<g>
		<path class="st0" d="M232.649,297.446c0.432-1.761,0.624-3.447,0.875-5.12c1.48-9.866,3.807-19.505,7.649-28.742
			c0.706-1.697,1.482-3.362,2.411-4.949c0.362-0.619,0.75-1.232,1.197-1.79c1.934-2.411,4.465-2.975,7.276-1.66
			c1.917,0.897,3.31,2.333,4.314,4.175c1.282,2.351,1.839,4.925,2.317,7.52c0.767,4.165,1.175,8.379,1.659,12.583
			c0.283,2.459,0.536,4.921,0.808,7.381c0.012,0.111,0.076,0.216,0.161,0.447c0.339-0.335,0.365-0.729,0.456-1.064
			c1.857-6.834,4.3-13.455,7.233-19.897c1.175-2.582,2.493-5.092,3.893-7.558c1.067-1.879,2.268-3.675,3.783-5.23
			c1.245-1.277,2.645-2.353,4.479-2.591c3.491-0.454,6.143,1,8.111,3.79c1.249,1.771,1.744,3.836,2.025,5.953
			c0.508,3.83,0.221,7.654-0.124,11.476c-0.416,4.613-1.011,9.205-1.567,13.802c-0.536,4.435-1.084,8.869-1.589,13.308
			c-0.234,2.06-0.391,4.129-0.56,6.196c-0.562,6.85-0.661,13.718-0.664,20.585c-0.002,3.955,0.247,7.9,0.902,11.809
			c0.35,2.091,0.812,4.152,1.63,6.118c0.168,0.403,0.313,0.819,0.642,1.211c0.591-0.499,0.827-1.179,1.11-1.817
			c1.17-2.639,1.914-5.416,2.606-8.207c1.798-7.252,3.092-14.604,4.328-21.967c1.499-8.938,2.958-17.884,4.481-26.818
			c0.259-1.522,0.226-2.996,0.018-4.511c-1.299-9.436-0.617-18.721,2.225-27.827c0.883-2.829,2.018-5.551,3.6-8.071
			c0.896-1.427,1.918-2.752,3.157-3.901c3.553-3.295,7.959-3.835,12.127-1.344c4.551,2.721,7.49,6.762,9.12,11.761
			c0.837,2.567,1.18,5.202,0.801,7.915c-0.512,3.666-2.424,6.266-5.77,7.815c-2.203,1.02-4.554,1.474-6.952,1.67
			c-2.832,0.232-5.669,0.142-8.501-0.052c-0.875-0.06-0.873-0.072-0.971,0.854c-0.143,1.354-0.137,2.714-0.099,4.071
			c0.193,6.92,1.26,13.671,4.025,20.073c1.817,4.208,4.146,8.101,7.297,11.463c1.514,1.616,3.219,2.984,5.22,3.963
			c3.144,1.538,6.174,1.328,9.086-0.599c2.312-1.53,4.072-3.58,5.468-5.948c2.212-3.751,3.622-7.818,4.571-12.046
			c0.987-4.401,1.899-8.818,2.852-13.226c0.241-1.113,0.789-1.518,1.827-1.398c0.981,0.113,1.602,0.748,1.598,1.761
			c-0.007,1.602-0.357,3.172-0.516,4.76c-0.42,4.183-1.231,8.288-2.405,12.322c-1.134,3.896-2.793,7.559-4.964,10.988
			c-0.405,0.64-0.837,1.268-1.302,1.866c-4.494,5.774-10.35,7.812-17.415,6.078c-6.717-1.649-11.921-5.618-16.046-11.074
			c-2.086-2.758-3.634-5.817-4.881-9.035c-0.156-0.403-0.231-0.847-0.591-1.27c-0.369,0.928-0.379,1.87-0.523,2.774
			c-1.717,10.804-3.385,21.615-5.128,32.415c-0.732,4.532-1.641,9.034-3.072,13.41c-0.584,1.787-1.257,3.539-2.31,5.114
			c-0.849,1.271-1.95,2.223-3.481,2.562c-2.194,0.485-4.02-0.196-5.503-1.837c-1.057-1.169-1.775-2.551-2.403-3.984
			c-1.336-3.046-2.269-6.225-3.021-9.455c-1.682-7.233-2.43-14.564-2.158-21.988c0.227-6.182,0.778-12.339,1.547-18.477
			c0.972-7.761,1.943-15.522,2.858-23.29c0.388-3.291,0.675-6.597,0.583-9.92c-0.028-1.037-0.049-2.074-0.326-3.082
			c-0.386-0.163-0.607,0.13-0.849,0.301c-1.118,0.789-2.04,1.785-2.931,2.815c-2.292,2.652-3.981,5.69-5.556,8.79
			c-4.394,8.648-7.371,17.747-8.644,27.386c-0.335,2.536-0.51,5.081-0.618,7.632c-0.076,1.795-0.625,2.687-2.038,3.145
			c-1.613,0.523-3.273,0.087-4.238-1.133c-0.576-0.729-0.931-1.579-1.265-2.436c-1.321-3.395-2.21-6.917-3.046-10.452
			c-1.022-4.323-1.515-8.726-1.929-13.14c-0.497-5.286-0.83-10.589-1.666-15.839c-0.188-1.18-0.397-2.357-0.734-3.565
			c-0.523,0.105-0.738,0.502-0.999,0.816c-1.102,1.33-1.971,2.812-2.738,4.351c-2.529,5.071-4.197,10.433-5.357,15.965
			c-0.993,4.735-1.625,9.518-1.969,14.343c-0.113,1.59-0.262,3.187-0.547,4.752c-0.604,3.319-3.318,4.958-6.593,4.077
			c-1.471-0.396-2.678-1.227-3.728-2.299c-1.637-1.671-2.876-3.624-3.963-5.679c-1.768-3.341-2.891-6.915-3.802-10.565
			c-0.096-0.385-0.2-0.768-0.326-1.25c-0.315,0.386-0.333,0.772-0.41,1.135c-1.912,8.94-3.819,17.881-5.742,26.818
			c-0.471,2.187-1.046,4.347-1.906,6.421c-0.446,1.074-0.979,2.098-1.706,3.013c-2.029,2.553-5.071,3.487-8.273,2.542
			c-2.256-0.666-4.04-2.06-5.646-3.707c-2.479-2.542-4.329-5.523-5.951-8.658c-3.079-5.953-4.891-12.292-5.78-18.915
			c-0.292-2.177-0.531-4.359-0.705-6.548c-0.008-0.1-0.062-0.196-0.152-0.469c-0.508,1.81-0.758,3.499-1.053,5.177
			c-0.997,5.665-1.66,11.378-2.395,17.08c-0.164,1.268-0.398,2.526-0.814,3.739c-0.944,2.75-3.194,3.995-6.027,3.379
			c-1.486-0.323-2.745-1.066-3.889-2.028c-1.695-1.426-3.091-3.118-4.314-4.955c-3.195-4.801-5.314-10.086-6.964-15.578
			c-1.592-5.299-2.409-10.739-2.953-16.231c-0.718-7.247-0.864-14.511-0.643-21.784c0.123-4.032,0.416-8.055,0.769-12.073
			c0.02-0.228,0.143-0.462-0.077-0.734c-0.455,0.089-0.818,0.412-1.212,0.656c-5.857,3.629-12.081,6.401-18.894,7.584
			c-13.238,2.298-24.258-1.696-32.94-11.988c-1.161-1.376-2.095-2.924-2.874-4.549c-0.304-0.635-0.685-0.842-1.385-0.816
			c-3.929,0.148-7.693-0.62-11.348-2.058c-5.015-1.974-8.971-5.329-12.339-9.424c-3.388-4.12-6.145-8.65-8.465-13.456
			c-3.289-6.814-5.336-14.009-6.683-21.426c-0.25-1.375-0.551-2.74-0.663-4.137c-0.091-1.135,0.143-1.59,0.935-1.785
			c0.968-0.238,1.922,0.209,2.218,1.143c0.264,0.834,0.468,1.697,0.591,2.563c1.675,11.833,5.831,22.688,12.734,32.469
			c1.992,2.823,4.293,5.367,6.948,7.574c4.075,3.387,8.807,5.086,14.079,5.337c0.199,0.01,0.4,0.008,0.599,0.003
			c0.959-0.026,0.977-0.032,0.707-0.933c-0.858-2.861-1.229-5.776-1.001-8.758c0.123-1.612,0.546-3.143,1.317-4.57
			c0.325-0.602,0.717-1.154,1.252-1.591c1.34-1.096,3.275-0.856,4.493,0.562c0.667,0.776,1.002,1.716,1.288,2.678
			c0.089,0.301,0.069,0.641,0.37,0.941c0.376-0.04,0.65-0.352,0.973-0.548c3.431-2.08,7.536-0.322,8.406,3.597
			c0.304,1.371-0.037,2.62-0.706,3.793c-1.15,2.018-2.744,3.621-4.709,4.851c-1.704,1.066-3.543,1.831-5.466,2.402
			c-0.38,0.113-0.761,0.224-1.134,0.334c-0.041,0.481,0.249,0.789,0.444,1.118c4.485,7.538,11.14,11.935,19.714,13.458
			c5.618,0.998,11.045-0.012,16.366-1.827c4.911-1.675,9.416-4.15,13.74-6.979c0.902-0.59,1.777-1.224,2.693-1.792
			c0.601-0.373,0.819-0.865,0.904-1.562c0.772-6.262,1.841-12.474,3.323-18.61c0.188-0.777,0.421-1.54,0.75-2.271
			c0.489-1.085,1.349-1.645,2.519-1.754c2.45-0.227,4.48,1.298,4.961,3.704c0.361,1.804,0.04,3.586-0.181,5.363
			c-0.28,2.257-0.652,4.503-0.984,6.753c-0.023,0.156-0.048,0.31,0.107,0.487c0.532-0.124,0.959-0.499,1.421-0.787
			c3.365-2.099,6.834-3.97,10.682-5.053c4.598-1.294,9.18-1.229,13.669,0.367c4.807,1.709,8.14,4.955,9.573,9.947
			c0.835,2.908,0.467,5.716-1.053,8.321c-1.815,3.11-5.376,3.739-8.219,1.525c-1.72-1.34-1.993-2.866-0.84-4.698
			c1.842-2.928,1.375-7.034-1.075-9.489c-0.638-0.639-1.418-1.026-2.258-1.311c-2.861-0.972-5.736-0.837-8.618-0.107
			c-2.22,0.562-4.307,1.462-6.322,2.532c-2.544,1.35-4.928,2.96-7.327,4.546c-0.488,0.323-0.692,0.719-0.75,1.273
			c-0.535,5.083-1.013,10.169-1.302,15.274c-0.322,5.71-0.356,11.42-0.132,17.13c0.217,5.509,0.797,10.988,1.543,16.45
			c0.562,4.113,1.087,8.231,2.003,12.286c0.803,3.555,1.84,7.028,3.551,10.268c0.672,1.272,1.406,2.51,2.384,3.575
			c0.423,0.46,0.827,1.262,1.419,1.145c0.625-0.123,0.618-1.031,0.792-1.626c0.36-1.228,0.554-2.493,0.732-3.759
			c0.663-4.705,1.249-9.423,2.247-14.072c1.584-7.376,3.146-14.757,4.922-22.091c0.537-2.216,0.595-4.507,0.959-6.753
			c0.536-3.312,1.168-6.601,2.173-9.808c0.263-0.84,0.57-1.662,0.985-2.439c0.923-1.726,2.276-2.37,4.18-2.005
			c1.809,0.347,3.056,1.706,3.217,3.536c0.138,1.566-0.116,3.109-0.342,4.649c-0.509,3.475-1.054,6.944-1.388,10.444
			c-0.589,6.178-0.693,12.354-0.234,18.546c0.543,7.328,2.104,14.447,4.369,21.417c1.013,3.119,2.286,6.136,4.051,8.921
			c0.664,1.048,1.351,2.088,2.292,2.909c1.506,1.314,1.587,1.216,2.648-0.27c0.936-1.312,1.509-2.81,2.031-4.322
			c1.292-3.742,2.239-7.579,3.122-11.432c2.149-9.377,4.278-18.759,6.414-28.139c0.151-0.664,0.187-1.325,0.154-2.015
			c-0.319-6.561,0.407-12.993,2.51-19.24c0.319-0.948,0.709-1.871,1.308-2.682c0.866-1.173,2.029-1.792,3.501-1.714
			c2.356,0.125,3.738,1.794,3.516,4.352c-0.151,1.748-0.375,3.496-0.687,5.222c-1.896,10.48-0.781,20.676,2.838,30.639
			c0.627,1.725,1.316,3.427,1.982,5.138C232.173,296.781,232.261,297.128,232.649,297.446z M316.74,265.622
			c2.31,0.037,4.629,0.066,6.891-0.527c2.895-0.759,4.529-2.658,5.067-5.57c0.25-1.353,0.215-2.698-0.007-4.046
			c-0.603-3.662-2.255-6.705-5.328-8.872c-1.55-1.094-2.42-1.018-3.848,0.227c-1.246,1.086-2.204,2.409-3.042,3.822
			c-1.124,1.896-1.937,3.93-2.616,6.019c-0.839,2.582-1.459,5.218-1.899,7.896c-0.164,0.998-0.129,1.036,0.834,1.048
			C314.108,265.633,315.424,265.622,316.74,265.622z M99.197,218.172c-0.553,0.738-0.714,1.438-0.858,2.128
			c-0.681,3.26-0.172,6.42,0.83,9.54c0.181,0.565,0.494,0.632,0.994,0.479c2.678-0.817,5.101-2.053,6.986-4.189
			c0.583-0.661,1.095-1.369,1.464-2.176c0.366-0.8,0.392-1.624,0.151-2.452c-0.296-1.016-0.862-1.255-1.807-0.785
			c-0.505,0.252-0.926,0.618-1.326,1.013c-0.543,0.537-1.009,1.137-1.38,1.799c-0.774,1.384-3.138,1.182-3.882-0.293
			c-0.199-0.394-0.295-0.82-0.389-1.251C99.714,220.781,99.637,219.538,99.197,218.172z"/>
		<g>
			<path class="st0" d="M270.838,182.354c-0.357,0.33-0.332,0.749-0.406,1.132c-1.378,7.093-2.67,14.204-4.54,21.191
				c-0.723,2.701-1.496,5.385-2.616,7.955c-0.625,1.433-1.351,2.808-2.38,4c-2.642,3.062-6.659,3.62-10.037,1.395
				c-1.39-0.916-2.471-2.139-3.431-3.478c-1.946-2.714-3.323-5.729-4.577-8.801c-2.211-5.418-3.686-11.048-4.747-16.794
				c-0.039-0.211,0.043-0.484-0.246-0.62c-0.313,0.164-0.222,0.474-0.254,0.729c-1.017,8.042-2.043,16.083-3.037,24.127
				c-0.489,3.963-0.945,7.93-1.768,11.842c-0.345,1.643-0.793,3.253-1.455,4.805c-1.71,4.013-5.871,3.932-8.264,1.652
				c-1.056-1.006-1.852-2.196-2.521-3.475c-1.847-3.532-2.981-7.301-3.791-11.19c-1.386-6.657-1.678-13.375-1.307-20.144
				c0.225-4.108,0.386-8.219,0.571-12.328c0.201-4.469,0.399-8.938,0.593-13.407c0.094-2.161-0.009-4.312-0.35-6.449
				c-0.069-0.433-0.13-0.868-0.381-1.276c-0.763,0.04-1.321,0.51-1.883,0.942c-1.409,1.084-2.515,2.448-3.501,3.913
				c-2.723,4.048-4.57,8.495-5.979,13.142c-1.254,4.139-2.013,8.379-2.651,12.647c-0.253,1.695-0.452,3.402-0.891,5.064
				c-0.756,2.868-3.022,4.216-5.93,3.533c-1.237-0.29-2.287-0.921-3.196-1.8c-1.19-1.15-2.119-2.494-2.916-3.932
				c-1.811-3.266-3.106-6.736-4.059-10.341c-0.067-0.255-0.015-0.575-0.43-0.748c-0.187,1.551-0.357,3.075-0.557,4.595
				c-0.515,3.919-0.739,7.873-1.429,11.771c-0.223,1.261-0.503,2.508-1.033,3.68c-1.098,2.429-3.355,3.46-5.934,2.733
				c-1.306-0.368-2.377-1.119-3.321-2.064c-1.394-1.397-2.499-3.008-3.43-4.74c-2.776-5.165-4.396-10.675-5.028-16.503
				c-0.583-5.376-0.787-10.754-0.404-16.148c0.22-3.105,0.458-6.212,1.145-9.262c0.176-0.78,0.425-1.536,0.692-2.289
				c0.518-1.463,1.595-2.171,3.08-2.249c1.409-0.074,2.682,0.361,3.729,1.338c0.801,0.747,1.175,1.677,1.17,2.783
				c-0.008,1.921-0.231,3.827-0.366,5.738c-0.556,7.839-0.388,15.644,0.918,23.408c0.49,2.913,0.946,5.832,1.601,8.713
				c0.505,2.219,1.204,4.375,2.207,6.485c0.506-0.222,0.529-0.649,0.648-0.994c0.836-2.428,1.282-4.951,1.639-7.478
				c1.037-7.354,2.001-14.718,2.985-22.079c0.058-0.432,0.076-0.876,0.059-1.312c-0.213-5.348,0.398-10.601,1.793-15.765
				c0.261-0.965,0.59-1.91,1.046-2.799c0.853-1.663,2.229-2.368,3.924-2.045c2.003,0.381,3.247,1.617,3.431,3.463
				c0.112,1.117,0.011,2.234-0.126,3.346c-0.541,4.402-1.013,8.807-0.826,13.257c0.222,5.293,1.196,10.462,2.487,15.581
				c0.615,2.439,1.262,4.868,2.116,7.237c0.066,0.184,0.173,0.352,0.285,0.576c0.435-0.534,0.452-1.153,0.592-1.715
				c1.176-4.725,2.176-9.495,3.614-14.153c1.549-5.016,3.528-9.845,6.283-14.332c0.817-1.33,1.718-2.599,2.771-3.755
				c0.161-0.177,0.323-0.354,0.488-0.528c3.764-3.973,8.174-2.885,11.12-0.035c1.511,1.462,2.317,3.325,2.832,5.327
				c0.58,2.254,0.834,4.56,0.91,6.874c0.188,5.714-0.116,11.422-0.33,17.13c-0.116,3.113-0.24,6.227-0.334,9.341
				c-0.134,4.472-0.313,8.944-0.196,13.419c0.117,4.479,0.489,8.931,1.645,13.281c0.243,0.913,0.456,1.852,1.063,2.687
				c0.566-0.957,0.799-1.974,1.06-2.971c1.187-4.525,1.98-9.129,2.647-13.753c1.123-7.785,2.2-15.577,3.277-23.369
				c0.672-4.865,1.322-9.733,1.95-14.603c0.184-1.431,0.01-2.874-0.044-4.309c-0.195-5.112-0.183-10.224-0.01-15.336
				c0.115-3.393,0.226-6.787,0.377-10.179c0.107-2.393,0.289-4.784,0.419-7.176c0.055-1.024,0.032-1.025-0.956-0.925
				c-9.257,0.938-18.519,1.823-27.818,2.232c-7.426,0.327-14.857,0.515-22.281,0.025c-8.141-0.538-16.216-1.536-24.042-4
				c-2.479-0.781-4.897-1.711-7.249-2.818c-0.314-0.148-0.603-0.413-0.992-0.332c0,1.673-0.069,3.345,0.021,5.008
				c0.077,1.437,0.132,2.873,0.153,4.31c0.064,4.194,0.306,8.386,0.194,12.58c-0.132,4.909-0.295,9.817-0.487,14.724
				c-0.111,2.83-0.289,5.658-0.464,8.484c-0.539,8.718-1.173,17.427-2.286,26.096c-0.777,6.059-1.605,12.105-2.95,18.069
				c-0.862,3.82-1.888,7.592-3.355,11.231c-0.644,1.597-1.394,3.14-2.425,4.529c-2.735,3.682-6.976,4.668-11.066,2.574
				c-1.514-0.775-2.784-1.862-3.933-3.1c-2.084-2.244-3.69-4.815-5.064-7.533c-2.796-5.527-4.583-11.393-5.795-17.447
				c-0.989-4.94-1.536-9.936-1.966-14.951c-0.838-9.772-0.772-19.553-0.351-29.336c0.199-4.627,0.426-9.256,0.833-13.872
				c0.038-0.433,0.005-0.872,0.005-1.422c-0.402,0.403-0.488,0.876-0.651,1.291c-4.22,10.744-7.959,21.658-11.519,32.635
				c-2.241,6.91-4.4,13.849-6.964,20.651c-0.803,2.131-1.695,4.226-2.929,6.153c-0.977,1.524-2.237,2.715-4.026,3.216
				c-2.365,0.663-4.507,0.121-6.448-1.307c-1.699-1.249-2.994-2.869-4.104-4.641c-1.787-2.852-3.233-5.875-4.422-9.02
				c-2.527-6.68-4.144-13.576-4.95-20.672c-0.877-7.722-1.032-15.471-0.602-23.213c0.874-15.712,3.437-31.158,7.82-46.286
				c0.355-1.224,0.802-2.426,1.281-3.608c0.708-1.746,1.653-2.385,3.231-2.307c1.657,0.082,3.116,1.16,3.622,2.69
				c0.216,0.651,0.269,1.325,0.279,2.009c0.033,2.255-0.418,4.449-0.844,6.642c-1.286,6.62-2.626,13.231-3.64,19.899
				c-0.762,5.01-1.399,10.037-1.818,15.091c-0.436,5.257-0.72,10.521-0.606,15.794c0.236,10.931,1.415,21.747,4.261,32.336
				c0.862,3.207,1.963,6.33,3.574,9.251c0.483,0.875,0.974,1.746,1.619,2.515c0.556,0.662,0.63,0.666,1.177,0.035
				c0.71-0.82,1.257-1.751,1.763-2.704c1.013-1.906,1.876-3.882,2.676-5.885c3.068-7.678,5.633-15.536,8.341-23.343
				c4.801-13.841,9.583-27.689,14.38-41.531c0.261-0.753,0.6-1.479,0.883-2.225c0.539-1.422,1.631-2.184,3.531-2.106
				c2.899,0.119,4.978,2.186,5.228,5.1c0.182,2.118,0.028,4.233-0.118,6.344c-0.271,3.904-0.617,7.803-0.853,11.708
				c-0.56,9.252-0.93,18.512-0.756,27.785c0.224,11.969,1.481,23.822,4.099,35.515c0.751,3.355,1.725,6.644,3.099,9.805
				c0.622,1.432,1.338,2.812,2.208,4.11c0.423,0.632,0.887,1.232,1.428,1.769c1.612,1.597,2.311,1.545,3.719-0.287
				c0.734-0.956,1.29-2.016,1.795-3.105c0.858-1.851,1.527-3.773,2.13-5.719c1.671-5.389,2.736-10.913,3.593-16.479
				c0.893-5.798,1.509-11.627,1.985-17.474c0.346-4.253,0.669-8.506,0.951-12.764c0.377-5.696,0.561-11.398,0.747-17.102
				c0.241-7.39,0.218-14.778,0.098-22.166c-0.057-3.513-0.271-7.023-0.368-10.535c-0.019-0.692-0.305-1.071-0.847-1.438
				c-2.591-1.755-4.954-3.776-6.978-6.176c-2.274-2.695-3.969-5.698-4.791-9.148c-0.79-3.316-0.899-6.637,0.075-9.944
				c0.446-1.514,1.153-2.891,2.195-4.083c2.49-2.85,6.353-3.064,9.15-0.506c1.417,1.296,2.373,2.904,3.028,4.686
				c1.883,5.121,2.585,19.838,2.613,20.712c0.027,0.842,0.309,1.373,1.021,1.846c4.41,2.924,9.216,4.919,14.321,6.232
				c5.427,1.396,10.951,2.188,16.529,2.68c9.898,0.873,19.794,0.507,29.692,0.036c7.302-0.348,14.563-1.212,21.851-1.748
				c0.873-0.064,0.902-0.084,0.964-1.011c0.22-3.308,0.57-6.603,1.011-9.888c0.249-1.859,0.487-3.721,0.956-5.543
				c0.2-0.776,0.439-1.538,0.888-2.212c0.907-1.362,2.291-1.732,3.763-1.015c0.983,0.478,1.617,1.283,2.064,2.249
				c0.476,1.029,0.649,2.13,0.754,3.25c0.276,2.958-0.014,5.907-0.122,8.859c-0.044,1.197-0.147,2.392-0.198,3.589
				c-0.042,0.979-0.013,0.988,0.991,0.921c4.386-0.294,8.778-0.472,13.172-0.345c4.875,0.141,9.716,0.68,14.528,1.473
				c1.231,0.203,2.393,0.627,3.542,1.084c1.072,0.426,1.612,1.121,1.49,1.793c-0.125,0.689-0.873,1.117-2.013,1.168
				c-2.011,0.09-3.976-0.27-5.947-0.59c-6.213-1.008-12.466-1.302-18.749-0.995c-2.074,0.101-4.149,0.197-6.223,0.299
				c-1.082,0.053-1.099,0.055-1.15,1.175c-0.093,2.075-0.173,4.151-0.242,6.227c-0.299,8.944-0.549,17.89-0.27,26.839
				c0.173,5.55,0.652,11.077,1.316,16.592c0.587,4.877,1.241,9.741,2.238,14.552c0.746,3.599,1.607,7.169,3.081,10.557
				c0.302,0.695,0.628,1.382,0.992,2.046c0.287,0.523,0.604,1.042,0.985,1.499c1.399,1.679,1.644,1.633,2.95,0.008
				c0.552-0.687,0.968-1.464,1.359-2.253c0.978-1.974,1.73-4.037,2.372-6.138c2.124-6.955,3.788-14.026,5.265-21.142
				c1.12-5.394,2.178-10.801,3.272-16.201c0.335-1.651,0.334-3.335,0.52-5.001c0.031-0.277,1.459-15.124,7.508-22.493
				c1.619-1.971,3.622-3.356,6.139-3.929c1.872-0.426,3.741-0.345,5.571,0.179c3.468,0.993,6.244,2.992,8.286,5.969
				c1.251,1.823,1.933,3.839,1.865,6.08c-0.097,3.189-1.578,5.458-4.494,6.764c-1.698,0.761-3.51,1.08-5.349,1.203
				c-2.636,0.176-5.27,0.106-7.89-0.272c-0.915-0.132-0.93-0.131-1.143,0.824c-0.611,2.731-1.026,5.496-1.246,8.283
				c-0.624,7.904,0.175,15.637,3.025,23.085c1.753,4.58,4.038,8.865,7.331,12.549c1.258,1.407,2.695,2.613,4.308,3.6
				c3.927,2.403,7.92,2.461,11.939,0.258c2.418-1.325,4.383-3.195,6.103-5.325c2.858-3.539,4.994-7.506,6.8-11.659
				c3.455-7.946,5.777-16.235,7.397-24.731c1.387-7.278,2.061-14.626,2.087-22.033c0.006-1.604-0.004-1.599-1.603-2.029
				c-7.3-1.964-14.457-4.325-21.235-7.717c-5.096-2.55-9.872-5.583-14.005-9.548c-3.423-3.284-6.182-7.017-7.534-11.632
				c-1.605-5.475-1.075-10.701,2.267-15.427c2.534-3.582,6.124-5.54,10.465-6.056c5.291-0.628,10.136,0.752,14.638,3.468
				c4.001,2.413,7.161,5.722,9.865,9.49c4.372,6.091,7.144,12.895,8.885,20.146c1.056,4.397,1.715,8.855,1.986,13.37
				c0.007,0.12,0.011,0.24,0.021,0.359c0.094,1.084,0.092,1.094,1.126,1.345c2.366,0.574,4.736,1.131,7.101,1.708
				c2.716,0.663,5.471,1.132,8.214,1.662c1.228,0.237,2.374,0.695,3.422,1.382c2.381,1.56,3.256,3.926,3.562,6.613
				c0.424,3.715,0.132,7.424-0.098,11.129c-0.232,3.746-0.549,7.487-0.847,11.228c-0.368,4.617-0.798,9.23-1.121,13.85
				c-0.267,3.824-0.425,7.656-0.614,11.486c-0.252,5.107-0.43,21.425-0.535,26.537c-0.059,2.887-9.545,3.268-9.488-0.879
				c0.032-2.356,0.136-4.711,0.208-7.067c0.215-7.027,0.535-25.259,1.043-32.27c0.441-6.092,1.067-12.171,1.515-18.264
				c0.359-4.897,0.842-9.79,0.804-14.711c-0.01-1.281-0.115-2.552-0.25-3.824c-0.085-0.794-0.439-1.275-1.234-1.55
				c-2.872-0.996-5.815-1.725-8.759-2.458c-1.228-0.306-2.46-0.597-3.71-0.899c-0.206,0.714-0.111,1.315-0.118,1.906
				c-0.169,14.826-2.731,29.226-7.726,43.185c-1.631,4.557-3.621,8.956-6.16,13.091c-1.215,1.979-2.561,3.861-4.125,5.581
				c-6.691,7.355-16.36,9.23-25.34,4.939c-3.839-1.834-6.855-4.636-9.494-7.904c-3.732-4.622-5.997-9.959-7.612-15.61
				C271.505,185.089,271.19,183.73,270.838,182.354z M327.984,136.179c0.246-0.429,0.154-0.751,0.122-1.062
				c-0.197-1.906-0.36-3.816-0.617-5.714c-0.84-6.204-2.4-12.211-5.028-17.914c-2.4-5.207-5.524-9.897-9.911-13.66
				c-2.997-2.57-6.376-4.335-10.333-4.95c-6.374-0.991-12.041,2.547-13.844,8.733c-1.215,4.169-0.592,8.137,1.381,11.938
				c1.549,2.985,3.719,5.472,6.253,7.653c3.102,2.67,6.511,4.886,10.129,6.786c4.714,2.475,9.675,4.353,14.715,6.036
				C323.193,134.808,325.544,135.555,327.984,136.179z M285.92,153.15c2.114-0.048,3.871-0.133,5.543-0.749
				c2.433-0.897,3.635-3.263,2.995-5.787c-0.351-1.383-1.173-2.427-2.285-3.267c-2.458-1.856-4.436-1.597-6.26,0.874
				c-1.775,2.403-2.857,5.148-3.798,7.957c-0.165,0.493,0.009,0.666,0.459,0.703C283.806,152.981,285.038,153.079,285.92,153.15z
				 M147.96,118.802c0.262-0.176,0.198-0.397,0.178-0.57c-1.289-11.059-0.53-15.197-3.554-18.893
				c-0.364-0.326-0.625-0.261-0.844,0.149c-0.457,0.854-0.726,1.772-0.826,2.728c-0.605,5.803,0.858,11.052,4.272,15.767
				C147.407,118.287,147.596,118.65,147.96,118.802z"/>
			<path class="st0" d="M168.138,148.196c-2.761-0.025-4.845-1.69-5.163-4.021c-0.198-1.457,0.389-2.587,1.687-3.244
				c1.946-0.985,4.593-0.374,5.92,1.363c0.241,0.316,0.496,0.62,0.74,0.934c1.031,1.325,0.862,2.957-0.43,4.03
				C170.058,147.951,169.077,148.219,168.138,148.196z"/>
		</g>
	</g>
	<path class="st15" d="M222.171,104.723c-0.858-0.475-1.749-0.895-2.643-1.3c-1.672-0.758-3.356-1.488-5.318-2.354
		c0.623-0.202,0.93-0.337,1.251-0.398c1.872-0.356,3.752-0.671,5.617-1.052c0.555-0.113,1.162-0.29,1.583-0.635
		c0.344-0.282,0.669-0.899,0.595-1.291c-0.074-0.394-0.598-0.807-1.021-1.002c-0.388-0.18-0.904-0.1-1.364-0.101
		c-2.143-0.007-4.286-0.003-6.627-0.003c1.736-1.254,3.334-2.385,4.903-3.554c0.505-0.376,1.023-0.792,1.376-1.3
		c0.686-0.988,0.11-2.215-1.093-2.277c-0.592-0.03-1.261,0.182-1.793,0.473c-1.215,0.666-2.362,1.455-3.547,2.178
		c-0.301,0.184-0.639,0.307-1.208,0.574c0.396-0.997,0.685-1.682,0.94-2.378c0.558-1.519,1.12-3.038,1.635-4.572
		c0.163-0.484,0.228-1.014,0.256-1.528c0.039-0.706-0.285-1.359-0.98-1.428c-0.472-0.047-1.138,0.251-1.455,0.619
		c-0.476,0.553-0.756,1.289-1.059,1.974c-1.007,2.273-1.983,4.561-2.982,6.838c-0.17,0.388-0.399,0.751-0.6,1.126
		c-0.283-0.65-0.264-1.212-0.286-1.773c-0.086-2.137-0.155-4.276-0.294-6.41c-0.044-0.681-0.209-1.377-0.454-2.014
		c-0.272-0.705-0.883-1.06-1.661-1.005c-0.782,0.055-1.312,0.502-1.5,1.236c-0.141,0.55-0.166,1.141-0.168,1.714
		c-0.01,2.372,0.012,4.745,0.011,7.118c-0.001,0.431-0.058,0.862-0.115,1.643c-0.699-0.748-1.144-1.256-1.623-1.729
		c-1.606-1.583-3.17-3.213-4.857-4.705c-1.018-0.901-2.038-0.832-2.631-0.112c-0.487,0.592-0.358,1.322,0.459,2.325
		c0.474,0.583,0.987,1.135,1.488,1.696c0.926,1.036,1.863,2.06,2.776,3.107c0.228,0.261,0.379,0.589,0.729,1.148
		c-0.812-0.274-1.296-0.434-1.777-0.6c-1.749-0.603-3.478-1.272-5.253-1.783c-0.864-0.249-1.814-0.28-2.724-0.267
		c-0.726,0.01-1.37,0.363-1.471,1.204c-0.104,0.863,0.494,1.216,1.182,1.483c1.939,0.755,3.877,1.511,5.81,2.281
		c0.574,0.229,1.127,0.509,1.69,0.765c-2.316,0.593-4.598,0.906-6.87,1.279c-0.906,0.149-1.805,0.384-2.68,0.665
		c-0.635,0.204-1.156,0.65-1.042,1.404c0.11,0.726,0.675,1.064,1.368,1.104c0.981,0.056,1.967,0.103,2.947,0.064
		c2.066-0.082,4.129-0.222,6.464-0.353c-0.595,0.503-1.014,0.868-1.444,1.219c-1.436,1.169-2.887,2.319-4.307,3.506
		c-0.44,0.368-0.916,0.775-1.159,1.27c-0.197,0.401-0.259,1.096-0.032,1.412c0.228,0.318,0.922,0.519,1.344,0.433
		c0.657-0.133,1.297-0.487,1.872-0.859c2.476-1.604,4.922-3.252,7.386-4.875c0.397-0.261,0.829-0.471,1.554-0.879
		c-0.341,0.81-0.556,1.266-0.728,1.738c-1.052,2.877-2.135,5.744-3.123,8.643c-0.466,1.366-0.104,2.243,0.793,2.483
		c0.755,0.202,1.191-0.22,1.755-1.508c0.801-1.831,1.657-3.639,2.49-5.456c0.104,0.026,0.208,0.051,0.311,0.077
		c0.19,0.994,0.318,2.005,0.585,2.977c0.352,1.284,1.229,1.85,2.281,1.603c0.997-0.234,1.321-0.958,1.198-2.32
		c-0.186-2.072-0.307-4.151-0.43-6.228c-0.021-0.35,0.092-0.707,0.202-1.463c0.608,0.72,0.958,1.178,1.353,1.593
		c1.834,1.929,3.675,3.851,5.527,5.763c0.36,0.371,0.736,0.761,1.179,1.009c0.71,0.398,1.453,0.369,2.079-0.229
		c0.553-0.528,0.609-1.291,0.125-2.059c-0.245-0.388-0.569-0.728-0.869-1.08c-1.037-1.218-2.079-2.432-3.119-3.648
		c1.448,0.2,2.73,0.669,4.026,1.096c0.71,0.234,1.434,0.459,2.169,0.573c0.809,0.125,1.532-0.145,1.816-0.987
		C223.269,105.792,222.901,105.128,222.171,104.723z"/>
	<path class="st15" d="M376.905,257.118c-0.858-0.475-1.749-0.895-2.643-1.3c-1.672-0.758-3.356-1.488-5.318-2.354
		c0.623-0.202,0.93-0.337,1.251-0.398c1.872-0.356,3.752-0.671,5.617-1.052c0.555-0.113,1.162-0.29,1.583-0.635
		c0.344-0.282,0.669-0.899,0.595-1.291c-0.074-0.394-0.598-0.807-1.021-1.002c-0.388-0.18-0.904-0.1-1.364-0.101
		c-2.143-0.007-4.286-0.003-6.627-0.003c1.736-1.254,3.334-2.385,4.903-3.554c0.505-0.376,1.023-0.792,1.376-1.3
		c0.686-0.988,0.11-2.215-1.093-2.277c-0.592-0.03-1.261,0.182-1.793,0.473c-1.215,0.666-2.362,1.455-3.547,2.178
		c-0.301,0.184-0.639,0.307-1.208,0.574c0.396-0.997,0.685-1.682,0.94-2.378c0.558-1.519,1.12-3.038,1.635-4.572
		c0.163-0.484,0.228-1.014,0.256-1.528c0.039-0.706-0.285-1.359-0.98-1.428c-0.472-0.047-1.138,0.251-1.455,0.619
		c-0.476,0.553-0.756,1.289-1.059,1.974c-1.007,2.273-1.983,4.561-2.982,6.838c-0.17,0.388-0.399,0.751-0.6,1.126
		c-0.283-0.65-0.264-1.212-0.286-1.773c-0.086-2.137-0.155-4.276-0.294-6.41c-0.044-0.681-0.209-1.377-0.454-2.014
		c-0.272-0.705-0.883-1.06-1.661-1.004c-0.782,0.055-1.312,0.502-1.5,1.236c-0.141,0.55-0.166,1.141-0.168,1.714
		c-0.01,2.372,0.012,4.745,0.011,7.118c-0.001,0.431-0.058,0.862-0.115,1.643c-0.699-0.748-1.144-1.256-1.623-1.729
		c-1.606-1.583-3.17-3.213-4.857-4.705c-1.018-0.901-2.038-0.832-2.631-0.112c-0.487,0.592-0.358,1.322,0.459,2.325
		c0.474,0.583,0.987,1.135,1.488,1.696c0.926,1.036,1.863,2.06,2.776,3.107c0.228,0.261,0.379,0.589,0.729,1.148
		c-0.812-0.274-1.296-0.434-1.777-0.6c-1.749-0.603-3.478-1.272-5.254-1.783c-0.864-0.249-1.814-0.28-2.724-0.267
		c-0.726,0.01-1.37,0.363-1.471,1.204c-0.104,0.863,0.494,1.216,1.182,1.483c1.939,0.755,3.877,1.511,5.81,2.281
		c0.574,0.229,1.127,0.509,1.69,0.765c-2.316,0.593-4.598,0.906-6.87,1.279c-0.906,0.149-1.805,0.384-2.68,0.665
		c-0.635,0.204-1.156,0.65-1.042,1.404c0.11,0.726,0.675,1.064,1.368,1.104c0.981,0.056,1.967,0.103,2.947,0.064
		c2.066-0.082,4.129-0.222,6.464-0.353c-0.595,0.503-1.014,0.868-1.444,1.219c-1.436,1.169-2.887,2.319-4.307,3.506
		c-0.44,0.368-0.916,0.775-1.159,1.27c-0.197,0.4-0.259,1.096-0.032,1.412c0.228,0.318,0.922,0.519,1.344,0.433
		c0.657-0.133,1.297-0.487,1.872-0.859c2.476-1.604,4.922-3.252,7.386-4.875c0.397-0.261,0.828-0.471,1.554-0.879
		c-0.341,0.81-0.556,1.266-0.728,1.738c-1.052,2.877-2.135,5.744-3.122,8.643c-0.466,1.366-0.104,2.243,0.793,2.483
		c0.755,0.202,1.191-0.22,1.755-1.508c0.801-1.831,1.657-3.639,2.49-5.456c0.104,0.026,0.208,0.051,0.311,0.077
		c0.19,0.994,0.318,2.005,0.585,2.977c0.352,1.284,1.229,1.85,2.281,1.603c0.997-0.234,1.321-0.958,1.198-2.32
		c-0.186-2.072-0.307-4.151-0.43-6.228c-0.021-0.35,0.092-0.707,0.202-1.463c0.608,0.719,0.958,1.178,1.353,1.593
		c1.834,1.929,3.675,3.851,5.527,5.763c0.36,0.371,0.736,0.761,1.179,1.009c0.71,0.398,1.453,0.369,2.079-0.229
		c0.553-0.528,0.609-1.291,0.125-2.059c-0.245-0.388-0.569-0.728-0.869-1.08c-1.037-1.218-2.079-2.432-3.119-3.648
		c1.448,0.2,2.73,0.669,4.026,1.096c0.71,0.234,1.434,0.459,2.169,0.573c0.809,0.125,1.532-0.145,1.816-0.987
		C378.003,258.186,377.635,257.522,376.905,257.118z"/>
	<path class="st15" d="M141.685,282.637c-0.858-0.475-1.749-0.895-2.643-1.3c-1.672-0.758-3.356-1.488-5.318-2.354
		c0.623-0.202,0.93-0.337,1.251-0.398c1.872-0.356,3.752-0.671,5.617-1.052c0.555-0.113,1.162-0.29,1.583-0.635
		c0.344-0.282,0.669-0.899,0.595-1.291c-0.074-0.394-0.598-0.807-1.021-1.002c-0.388-0.18-0.904-0.1-1.364-0.102
		c-2.143-0.007-4.286-0.003-6.627-0.003c1.736-1.254,3.334-2.385,4.903-3.554c0.505-0.376,1.023-0.792,1.376-1.3
		c0.686-0.988,0.11-2.215-1.093-2.277c-0.592-0.03-1.261,0.182-1.793,0.473c-1.215,0.666-2.362,1.455-3.547,2.178
		c-0.301,0.184-0.639,0.307-1.208,0.574c0.396-0.997,0.685-1.682,0.94-2.378c0.558-1.519,1.12-3.038,1.635-4.572
		c0.163-0.484,0.228-1.014,0.256-1.528c0.039-0.706-0.285-1.359-0.98-1.428c-0.472-0.047-1.138,0.251-1.455,0.619
		c-0.476,0.553-0.756,1.289-1.059,1.974c-1.007,2.273-1.983,4.561-2.982,6.838c-0.17,0.388-0.399,0.751-0.6,1.126
		c-0.283-0.65-0.264-1.212-0.286-1.773c-0.086-2.137-0.155-4.276-0.294-6.41c-0.044-0.681-0.209-1.377-0.454-2.014
		c-0.272-0.705-0.883-1.06-1.661-1.005c-0.782,0.055-1.312,0.502-1.5,1.236c-0.141,0.55-0.166,1.141-0.168,1.714
		c-0.01,2.372,0.012,4.745,0.011,7.118c-0.001,0.431-0.058,0.862-0.115,1.643c-0.699-0.748-1.144-1.256-1.623-1.729
		c-1.606-1.583-3.17-3.213-4.857-4.705c-1.018-0.901-2.038-0.832-2.631-0.112c-0.487,0.592-0.358,1.322,0.459,2.325
		c0.474,0.583,0.987,1.135,1.488,1.696c0.926,1.036,1.863,2.06,2.776,3.107c0.228,0.261,0.379,0.589,0.729,1.148
		c-0.812-0.274-1.296-0.434-1.777-0.6c-1.749-0.603-3.478-1.272-5.254-1.783c-0.864-0.249-1.814-0.28-2.724-0.267
		c-0.726,0.01-1.37,0.363-1.471,1.204c-0.104,0.863,0.494,1.216,1.182,1.483c1.939,0.755,3.877,1.511,5.81,2.281
		c0.574,0.229,1.127,0.509,1.69,0.765c-2.316,0.593-4.598,0.906-6.87,1.279c-0.906,0.149-1.805,0.384-2.68,0.665
		c-0.635,0.204-1.156,0.65-1.042,1.404c0.11,0.726,0.675,1.064,1.368,1.104c0.981,0.056,1.967,0.103,2.947,0.064
		c2.066-0.082,4.129-0.222,6.464-0.353c-0.595,0.503-1.014,0.868-1.444,1.219c-1.436,1.169-2.887,2.319-4.307,3.506
		c-0.44,0.368-0.916,0.775-1.159,1.27c-0.197,0.401-0.259,1.096-0.032,1.412c0.228,0.318,0.922,0.519,1.344,0.433
		c0.657-0.133,1.297-0.487,1.872-0.859c2.476-1.604,4.922-3.252,7.386-4.875c0.397-0.261,0.829-0.471,1.554-0.879
		c-0.341,0.81-0.556,1.266-0.728,1.738c-1.052,2.877-2.135,5.744-3.123,8.643c-0.466,1.366-0.104,2.243,0.793,2.483
		c0.755,0.202,1.191-0.22,1.755-1.508c0.801-1.831,1.657-3.639,2.49-5.456c0.104,0.026,0.208,0.051,0.311,0.077
		c0.19,0.994,0.318,2.005,0.585,2.977c0.352,1.284,1.229,1.85,2.28,1.603c0.997-0.234,1.321-0.958,1.198-2.32
		c-0.186-2.072-0.307-4.151-0.43-6.228c-0.021-0.35,0.092-0.707,0.202-1.463c0.608,0.719,0.958,1.178,1.353,1.593
		c1.834,1.929,3.675,3.851,5.527,5.763c0.36,0.371,0.736,0.761,1.179,1.009c0.71,0.398,1.453,0.369,2.079-0.229
		c0.553-0.528,0.609-1.291,0.125-2.059c-0.245-0.388-0.569-0.728-0.869-1.08c-1.037-1.218-2.079-2.432-3.119-3.648
		c1.448,0.2,2.73,0.669,4.026,1.096c0.71,0.234,1.434,0.459,2.169,0.573c0.809,0.125,1.532-0.145,1.816-0.987
		C142.783,283.706,142.415,283.041,141.685,282.637z"/>
	<g>
		<path class="st15" d="M250.634,95.451c-1.816-0.01-3.271-1.357-3.26-3c0.009-1.365,0.898-2.355,2.254-2.466
			c0.898-0.073,1.77,0.107,2.586,0.47c1.026,0.457,1.584,1.554,1.409,2.649c-0.191,1.202-1.199,2.182-2.421,2.343
			C251.016,95.472,250.824,95.451,250.634,95.451z"/>
		<path class="st15" d="M244.354,325.934c-1.816-0.01-3.271-1.357-3.26-3c0.009-1.365,0.898-2.355,2.254-2.466
			c0.898-0.073,1.77,0.107,2.586,0.47c1.026,0.457,1.584,1.554,1.409,2.649c-0.191,1.202-1.199,2.182-2.421,2.343
			C244.735,325.956,244.543,325.934,244.354,325.934z"/>
		<path class="st15" d="M347.676,114.448c-1.816-0.01-3.271-1.357-3.26-3c0.009-1.365,0.898-2.355,2.254-2.466
			c0.898-0.073,1.77,0.107,2.586,0.47c1.026,0.457,1.584,1.554,1.409,2.649c-0.191,1.202-1.199,2.182-2.421,2.343
			C348.058,114.469,347.866,114.448,347.676,114.448z"/>
		<path class="st15" d="M128.088,320.276c-1.816-0.01-3.271-1.357-3.26-3c0.009-1.365,0.898-2.355,2.254-2.466
			c0.898-0.073,1.77,0.107,2.586,0.47c1.026,0.457,1.584,1.554,1.409,2.649c-0.191,1.202-1.199,2.182-2.421,2.343
			C128.469,320.297,128.277,320.276,128.088,320.276z"/>
		<path class="st15" d="M287.872,233.126c-1.816-0.01-3.271-1.357-3.26-3c0.009-1.365,0.898-2.355,2.254-2.466
			c0.898-0.073,1.77,0.107,2.586,0.47c1.026,0.457,1.584,1.554,1.409,2.649c-0.191,1.202-1.199,2.182-2.421,2.343
			C288.254,233.147,288.062,233.126,287.872,233.126z"/>
		<path class="st15" d="M81.83,304.695c-1.816-0.01-3.271-1.357-3.26-3c0.009-1.365,0.898-2.355,2.254-2.466
			c0.898-0.073,1.77,0.107,2.586,0.47c1.026,0.457,1.584,1.554,1.409,2.649c-0.191,1.202-1.199,2.182-2.421,2.343
			C82.211,304.716,82.019,304.695,81.83,304.695z"/>
		<path class="st15" d="M250.634,237.255c-1.816-0.01-3.271-1.357-3.26-3c0.009-1.365,0.898-2.355,2.254-2.466
			c0.898-0.073,1.77,0.107,2.586,0.47c1.026,0.457,1.584,1.554,1.409,2.649c-0.191,1.202-1.199,2.182-2.421,2.343
			C251.016,237.276,250.824,237.255,250.634,237.255z"/>
		<path class="st15" d="M371.134,222.294c-1.816-0.01-3.271-1.357-3.26-3c0.009-1.365,0.898-2.355,2.254-2.466
			c0.898-0.073,1.77,0.107,2.586,0.47c1.026,0.457,1.584,1.554,1.409,2.649c-0.191,1.202-1.199,2.182-2.421,2.343
			C371.516,222.315,371.324,222.294,371.134,222.294z"/>
		<path class="st15" d="M106.994,111.703c-1.816-0.01-3.271-1.357-3.26-3c0.009-1.365,0.898-2.355,2.254-2.466
			c0.898-0.073,1.77,0.107,2.586,0.47c1.026,0.457,1.584,1.554,1.409,2.649c-0.191,1.202-1.199,2.182-2.421,2.343
			C107.376,111.724,107.184,111.703,106.994,111.703z"/>
		<path class="st15" d="M57.261,132.691c-1.816-0.01-3.271-1.357-3.26-3c0.009-1.365,0.898-2.355,2.254-2.466
			c0.898-0.073,1.77,0.107,2.586,0.47c1.026,0.457,1.584,1.554,1.409,2.649c-0.191,1.202-1.199,2.182-2.421,2.343
			C57.642,132.713,57.45,132.691,57.261,132.691z"/>
		<path class="st15" d="M88.11,258.821c-1.816-0.01-3.271-1.357-3.26-3c0.009-1.365,0.898-2.355,2.254-2.466
			c0.898-0.073,1.77,0.107,2.586,0.47c1.026,0.457,1.584,1.554,1.409,2.649c-0.191,1.202-1.199,2.182-2.421,2.343
			C88.492,258.842,88.3,258.821,88.11,258.821z"/>
	</g>
</g>
</svg>
